<mxfile host="app.diagrams.net" modified="2023-11-23T19:47:08.313Z" agent="Mozilla/5.0 (Windows NT 10.0; Win64; x64) AppleWebKit/537.36 (KHTML, like Gecko) Chrome/119.0.0.0 Safari/537.36" etag="ZGUFqjSh6tsJCarD5c0D" version="22.1.3" type="device">
  <diagram name="PÃ¡gina-1" id="oS4GnL5e1fBhtyjDvxNR">
    <mxGraphModel dx="1592" dy="1585" grid="1" gridSize="10" guides="1" tooltips="1" connect="1" arrows="1" fold="1" page="1" pageScale="1" pageWidth="827" pageHeight="1169" math="0" shadow="0">
      <root>
        <mxCell id="0" />
        <mxCell id="1" parent="0" />
        <mxCell id="rz2hdJDVGDlyGoP4z-RC-2" value="Proveedor" style="whiteSpace=wrap;html=1;align=center;fillColor=#d5e8d4;strokeColor=#82b366;" parent="1" vertex="1">
          <mxGeometry x="620" y="220" width="100" height="40" as="geometry" />
        </mxCell>
        <mxCell id="rz2hdJDVGDlyGoP4z-RC-3" value="Cliente" style="whiteSpace=wrap;html=1;align=center;fillColor=#d5e8d4;strokeColor=#82b366;" parent="1" vertex="1">
          <mxGeometry x="20" y="60" width="100" height="40" as="geometry" />
        </mxCell>
        <mxCell id="rz2hdJDVGDlyGoP4z-RC-5" value="Producto" style="whiteSpace=wrap;html=1;align=center;fillColor=#d5e8d4;strokeColor=#82b366;" parent="1" vertex="1">
          <mxGeometry x="620" y="60" width="100" height="40" as="geometry" />
        </mxCell>
        <mxCell id="rz2hdJDVGDlyGoP4z-RC-8" value="PROVEE" style="shape=rhombus;perimeter=rhombusPerimeter;whiteSpace=wrap;html=1;align=center;fillColor=#ffe6cc;strokeColor=#d79b00;" parent="1" vertex="1">
          <mxGeometry x="610" y="130" width="120" height="60" as="geometry" />
        </mxCell>
        <mxCell id="rz2hdJDVGDlyGoP4z-RC-9" value="RECIBE" style="shape=rhombus;perimeter=rhombusPerimeter;whiteSpace=wrap;html=1;align=center;fillColor=#ffe6cc;strokeColor=#d79b00;" parent="1" vertex="1">
          <mxGeometry x="160" y="50" width="120" height="60" as="geometry" />
        </mxCell>
        <mxCell id="rz2hdJDVGDlyGoP4z-RC-10" value="DETALLA" style="shape=rhombus;perimeter=rhombusPerimeter;whiteSpace=wrap;html=1;align=center;fillColor=#ffe6cc;strokeColor=#d79b00;" parent="1" vertex="1">
          <mxGeometry x="460" y="50" width="120" height="60" as="geometry" />
        </mxCell>
        <mxCell id="rz2hdJDVGDlyGoP4z-RC-11" value="Factura" style="whiteSpace=wrap;html=1;align=center;fillColor=#d5e8d4;strokeColor=#82b366;" parent="1" vertex="1">
          <mxGeometry x="320" y="60" width="100" height="40" as="geometry" />
        </mxCell>
        <mxCell id="rz2hdJDVGDlyGoP4z-RC-16" value="idCliente" style="ellipse;whiteSpace=wrap;html=1;align=center;fontStyle=4;fillColor=#dae8fc;strokeColor=#6c8ebf;" parent="1" vertex="1">
          <mxGeometry x="-120" y="-120" width="100" height="40" as="geometry" />
        </mxCell>
        <mxCell id="rz2hdJDVGDlyGoP4z-RC-18" value="apellido" style="ellipse;whiteSpace=wrap;html=1;align=center;fillColor=#dae8fc;strokeColor=#6c8ebf;" parent="1" vertex="1">
          <mxGeometry x="-120" width="100" height="40" as="geometry" />
        </mxCell>
        <mxCell id="rz2hdJDVGDlyGoP4z-RC-19" value="telefono" style="ellipse;whiteSpace=wrap;html=1;align=center;fillColor=#dae8fc;strokeColor=#6c8ebf;" parent="1" vertex="1">
          <mxGeometry x="-120" y="120" width="100" height="40" as="geometry" />
        </mxCell>
        <mxCell id="rz2hdJDVGDlyGoP4z-RC-20" value="direccion" style="ellipse;whiteSpace=wrap;html=1;align=center;fillColor=#dae8fc;strokeColor=#6c8ebf;" parent="1" vertex="1">
          <mxGeometry x="-120" y="60" width="100" height="40" as="geometry" />
        </mxCell>
        <mxCell id="rz2hdJDVGDlyGoP4z-RC-21" value="nombre" style="ellipse;whiteSpace=wrap;html=1;align=center;fillColor=#dae8fc;strokeColor=#6c8ebf;" parent="1" vertex="1">
          <mxGeometry x="-120" y="-60" width="100" height="40" as="geometry" />
        </mxCell>
        <mxCell id="rz2hdJDVGDlyGoP4z-RC-28" value="idProveedor" style="ellipse;whiteSpace=wrap;html=1;align=center;fontStyle=4;fillColor=#dae8fc;strokeColor=#6c8ebf;" parent="1" vertex="1">
          <mxGeometry x="440" y="300" width="100" height="40" as="geometry" />
        </mxCell>
        <mxCell id="rz2hdJDVGDlyGoP4z-RC-30" value="telefono" style="ellipse;whiteSpace=wrap;html=1;align=center;fillColor=#dae8fc;strokeColor=#6c8ebf;" parent="1" vertex="1">
          <mxGeometry x="800" y="300" width="100" height="40" as="geometry" />
        </mxCell>
        <mxCell id="rz2hdJDVGDlyGoP4z-RC-31" value="direccion" style="ellipse;whiteSpace=wrap;html=1;align=center;fillColor=#dae8fc;strokeColor=#6c8ebf;" parent="1" vertex="1">
          <mxGeometry x="680" y="300" width="100" height="40" as="geometry" />
        </mxCell>
        <mxCell id="rz2hdJDVGDlyGoP4z-RC-32" value="razonRazon" style="ellipse;whiteSpace=wrap;html=1;align=center;fillColor=#dae8fc;strokeColor=#6c8ebf;" parent="1" vertex="1">
          <mxGeometry x="560" y="300" width="100" height="40" as="geometry" />
        </mxCell>
        <mxCell id="rz2hdJDVGDlyGoP4z-RC-33" value="idFactura" style="ellipse;whiteSpace=wrap;html=1;align=center;fontStyle=4;fillColor=#dae8fc;strokeColor=#6c8ebf;" parent="1" vertex="1">
          <mxGeometry x="200" y="-40.57" width="100" height="40" as="geometry" />
        </mxCell>
        <mxCell id="rz2hdJDVGDlyGoP4z-RC-34" value="fecFacturacion" style="ellipse;whiteSpace=wrap;html=1;align=center;fillColor=#dae8fc;strokeColor=#6c8ebf;" parent="1" vertex="1">
          <mxGeometry x="320" y="-40.57" width="100" height="40" as="geometry" />
        </mxCell>
        <mxCell id="rz2hdJDVGDlyGoP4z-RC-36" value="precioTotall" style="ellipse;whiteSpace=wrap;html=1;align=center;fillColor=#dae8fc;strokeColor=#6c8ebf;" parent="1" vertex="1">
          <mxGeometry x="440" y="-40.57" width="100" height="40" as="geometry" />
        </mxCell>
        <mxCell id="rz2hdJDVGDlyGoP4z-RC-37" value="idProducto" style="ellipse;whiteSpace=wrap;html=1;align=center;fontStyle=4;fillColor=#dae8fc;strokeColor=#6c8ebf;" parent="1" vertex="1">
          <mxGeometry x="760" y="-60" width="100" height="40" as="geometry" />
        </mxCell>
        <mxCell id="rz2hdJDVGDlyGoP4z-RC-38" value="nombre" style="ellipse;whiteSpace=wrap;html=1;align=center;fillColor=#dae8fc;strokeColor=#6c8ebf;" parent="1" vertex="1">
          <mxGeometry x="760" width="100" height="40" as="geometry" />
        </mxCell>
        <mxCell id="rz2hdJDVGDlyGoP4z-RC-39" value="precioUnitario" style="ellipse;whiteSpace=wrap;html=1;align=center;fillColor=#dae8fc;strokeColor=#6c8ebf;" parent="1" vertex="1">
          <mxGeometry x="760" y="120" width="100" height="40" as="geometry" />
        </mxCell>
        <mxCell id="rz2hdJDVGDlyGoP4z-RC-40" value="categoria" style="ellipse;whiteSpace=wrap;html=1;align=center;fillColor=#dae8fc;strokeColor=#6c8ebf;" parent="1" vertex="1">
          <mxGeometry x="760" y="60" width="100" height="40" as="geometry" />
        </mxCell>
        <mxCell id="rz2hdJDVGDlyGoP4z-RC-41" value="fecVencimiento" style="ellipse;whiteSpace=wrap;html=1;align=center;fillColor=#dae8fc;strokeColor=#6c8ebf;" parent="1" vertex="1">
          <mxGeometry x="760" y="180" width="100" height="40" as="geometry" />
        </mxCell>
        <mxCell id="rz2hdJDVGDlyGoP4z-RC-42" value="(1,1)" style="text;html=1;strokeColor=none;fillColor=none;align=center;verticalAlign=middle;whiteSpace=wrap;rounded=0;" parent="1" vertex="1">
          <mxGeometry x="109" y="50" width="60" height="30" as="geometry" />
        </mxCell>
        <mxCell id="rz2hdJDVGDlyGoP4z-RC-43" value="1:M" style="text;html=1;strokeColor=none;fillColor=none;align=center;verticalAlign=middle;whiteSpace=wrap;rounded=0;" parent="1" vertex="1">
          <mxGeometry x="190" y="20" width="60" height="30" as="geometry" />
        </mxCell>
        <mxCell id="rz2hdJDVGDlyGoP4z-RC-45" value="(1;M)" style="text;html=1;strokeColor=none;fillColor=none;align=center;verticalAlign=middle;whiteSpace=wrap;rounded=0;" parent="1" vertex="1">
          <mxGeometry x="560" y="30" width="60" height="30" as="geometry" />
        </mxCell>
        <mxCell id="rz2hdJDVGDlyGoP4z-RC-46" value="M:N" style="text;html=1;strokeColor=none;fillColor=none;align=center;verticalAlign=middle;whiteSpace=wrap;rounded=0;" parent="1" vertex="1">
          <mxGeometry x="490" y="20" width="60" height="30" as="geometry" />
        </mxCell>
        <mxCell id="rz2hdJDVGDlyGoP4z-RC-47" value="(1,M)" style="text;html=1;strokeColor=none;fillColor=none;align=center;verticalAlign=middle;whiteSpace=wrap;rounded=0;" parent="1" vertex="1">
          <mxGeometry x="270" y="40" width="60" height="30" as="geometry" />
        </mxCell>
        <mxCell id="rz2hdJDVGDlyGoP4z-RC-48" value="(1;N)" style="text;html=1;strokeColor=none;fillColor=none;align=center;verticalAlign=middle;whiteSpace=wrap;rounded=0;" parent="1" vertex="1">
          <mxGeometry x="430" y="40" width="60" height="30" as="geometry" />
        </mxCell>
        <mxCell id="rz2hdJDVGDlyGoP4z-RC-49" value="(1;N)" style="text;html=1;strokeColor=none;fillColor=none;align=center;verticalAlign=middle;whiteSpace=wrap;rounded=0;" parent="1" vertex="1">
          <mxGeometry x="600" y="100" width="60" height="30" as="geometry" />
        </mxCell>
        <mxCell id="rz2hdJDVGDlyGoP4z-RC-50" value="(1,1)" style="text;html=1;strokeColor=none;fillColor=none;align=center;verticalAlign=middle;whiteSpace=wrap;rounded=0;" parent="1" vertex="1">
          <mxGeometry x="600" y="185" width="60" height="30" as="geometry" />
        </mxCell>
        <mxCell id="rz2hdJDVGDlyGoP4z-RC-51" value="1:M" style="text;html=1;strokeColor=none;fillColor=none;align=center;verticalAlign=middle;whiteSpace=wrap;rounded=0;" parent="1" vertex="1">
          <mxGeometry x="550" y="140" width="60" height="30" as="geometry" />
        </mxCell>
        <mxCell id="-Rssr8xIlX8RrwnYfVgQ-1" value="" style="endArrow=none;html=1;rounded=0;" parent="1" edge="1">
          <mxGeometry width="50" height="50" relative="1" as="geometry">
            <mxPoint x="120" y="80" as="sourcePoint" />
            <mxPoint x="160" y="80" as="targetPoint" />
          </mxGeometry>
        </mxCell>
        <mxCell id="-Rssr8xIlX8RrwnYfVgQ-2" value="" style="endArrow=none;html=1;rounded=0;" parent="1" edge="1">
          <mxGeometry width="50" height="50" relative="1" as="geometry">
            <mxPoint x="280" y="80" as="sourcePoint" />
            <mxPoint x="320" y="80" as="targetPoint" />
          </mxGeometry>
        </mxCell>
        <mxCell id="-Rssr8xIlX8RrwnYfVgQ-3" value="" style="endArrow=none;html=1;rounded=0;" parent="1" edge="1">
          <mxGeometry width="50" height="50" relative="1" as="geometry">
            <mxPoint x="420" y="80" as="sourcePoint" />
            <mxPoint x="460" y="80" as="targetPoint" />
          </mxGeometry>
        </mxCell>
        <mxCell id="-Rssr8xIlX8RrwnYfVgQ-4" value="" style="endArrow=none;html=1;rounded=0;" parent="1" edge="1">
          <mxGeometry width="50" height="50" relative="1" as="geometry">
            <mxPoint x="580" y="80" as="sourcePoint" />
            <mxPoint x="620" y="80" as="targetPoint" />
          </mxGeometry>
        </mxCell>
        <mxCell id="-Rssr8xIlX8RrwnYfVgQ-5" value="" style="endArrow=none;html=1;rounded=0;" parent="1" edge="1">
          <mxGeometry width="50" height="50" relative="1" as="geometry">
            <mxPoint x="669.71" y="130" as="sourcePoint" />
            <mxPoint x="669.71" y="100" as="targetPoint" />
          </mxGeometry>
        </mxCell>
        <mxCell id="-Rssr8xIlX8RrwnYfVgQ-7" value="" style="endArrow=none;html=1;rounded=0;" parent="1" edge="1">
          <mxGeometry width="50" height="50" relative="1" as="geometry">
            <mxPoint x="669.71" y="220" as="sourcePoint" />
            <mxPoint x="669.71" y="190" as="targetPoint" />
          </mxGeometry>
        </mxCell>
        <mxCell id="-Rssr8xIlX8RrwnYfVgQ-9" value="" style="endArrow=none;html=1;rounded=0;" parent="1" edge="1">
          <mxGeometry width="50" height="50" relative="1" as="geometry">
            <mxPoint x="-1" y="200.14" as="sourcePoint" />
            <mxPoint y="-100" as="targetPoint" />
          </mxGeometry>
        </mxCell>
        <mxCell id="-Rssr8xIlX8RrwnYfVgQ-11" value="" style="endArrow=none;html=1;rounded=0;" parent="1" edge="1">
          <mxGeometry width="50" height="50" relative="1" as="geometry">
            <mxPoint x="-21" y="-40.14999999999999" as="sourcePoint" />
            <mxPoint x="-1" y="-40.14999999999999" as="targetPoint" />
          </mxGeometry>
        </mxCell>
        <mxCell id="-Rssr8xIlX8RrwnYfVgQ-12" value="" style="endArrow=none;html=1;rounded=0;" parent="1" edge="1">
          <mxGeometry width="50" height="50" relative="1" as="geometry">
            <mxPoint x="-20" y="19.75999999999999" as="sourcePoint" />
            <mxPoint y="19.75999999999999" as="targetPoint" />
          </mxGeometry>
        </mxCell>
        <mxCell id="-Rssr8xIlX8RrwnYfVgQ-13" value="" style="endArrow=none;html=1;rounded=0;" parent="1" edge="1">
          <mxGeometry width="50" height="50" relative="1" as="geometry">
            <mxPoint x="-20" y="199.76" as="sourcePoint" />
            <mxPoint y="199.76" as="targetPoint" />
          </mxGeometry>
        </mxCell>
        <mxCell id="-Rssr8xIlX8RrwnYfVgQ-14" value="" style="endArrow=none;html=1;rounded=0;" parent="1" edge="1">
          <mxGeometry width="50" height="50" relative="1" as="geometry">
            <mxPoint x="-20" y="79.75999999999999" as="sourcePoint" />
            <mxPoint y="79.75999999999999" as="targetPoint" />
          </mxGeometry>
        </mxCell>
        <mxCell id="-Rssr8xIlX8RrwnYfVgQ-15" value="" style="endArrow=none;html=1;rounded=0;" parent="1" edge="1">
          <mxGeometry width="50" height="50" relative="1" as="geometry">
            <mxPoint x="-20" y="139.76" as="sourcePoint" />
            <mxPoint y="139.76" as="targetPoint" />
          </mxGeometry>
        </mxCell>
        <mxCell id="-Rssr8xIlX8RrwnYfVgQ-16" value="" style="endArrow=none;html=1;rounded=0;" parent="1" edge="1">
          <mxGeometry width="50" height="50" relative="1" as="geometry">
            <mxPoint y="80" as="sourcePoint" />
            <mxPoint x="20" y="80" as="targetPoint" />
          </mxGeometry>
        </mxCell>
        <mxCell id="-Rssr8xIlX8RrwnYfVgQ-17" value="" style="endArrow=none;html=1;rounded=0;" parent="1" edge="1">
          <mxGeometry width="50" height="50" relative="1" as="geometry">
            <mxPoint x="740" y="200" as="sourcePoint" />
            <mxPoint x="740" y="-40" as="targetPoint" />
          </mxGeometry>
        </mxCell>
        <mxCell id="-Rssr8xIlX8RrwnYfVgQ-18" value="" style="endArrow=none;html=1;rounded=0;" parent="1" edge="1">
          <mxGeometry width="50" height="50" relative="1" as="geometry">
            <mxPoint x="740" y="-40.19999999999999" as="sourcePoint" />
            <mxPoint x="760" y="-40.19999999999999" as="targetPoint" />
          </mxGeometry>
        </mxCell>
        <mxCell id="-Rssr8xIlX8RrwnYfVgQ-19" value="" style="endArrow=none;html=1;rounded=0;" parent="1" edge="1">
          <mxGeometry width="50" height="50" relative="1" as="geometry">
            <mxPoint x="740" y="19.799999999999997" as="sourcePoint" />
            <mxPoint x="760" y="19.799999999999997" as="targetPoint" />
          </mxGeometry>
        </mxCell>
        <mxCell id="-Rssr8xIlX8RrwnYfVgQ-20" value="" style="endArrow=none;html=1;rounded=0;" parent="1" edge="1">
          <mxGeometry width="50" height="50" relative="1" as="geometry">
            <mxPoint x="740" y="139.6" as="sourcePoint" />
            <mxPoint x="760" y="139.6" as="targetPoint" />
          </mxGeometry>
        </mxCell>
        <mxCell id="-Rssr8xIlX8RrwnYfVgQ-21" value="" style="endArrow=none;html=1;rounded=0;" parent="1" edge="1">
          <mxGeometry width="50" height="50" relative="1" as="geometry">
            <mxPoint x="740" y="199.8" as="sourcePoint" />
            <mxPoint x="760" y="199.8" as="targetPoint" />
          </mxGeometry>
        </mxCell>
        <mxCell id="-Rssr8xIlX8RrwnYfVgQ-22" value="" style="endArrow=none;html=1;rounded=0;" parent="1" edge="1">
          <mxGeometry width="50" height="50" relative="1" as="geometry">
            <mxPoint x="740" y="79.8" as="sourcePoint" />
            <mxPoint x="760" y="79.8" as="targetPoint" />
          </mxGeometry>
        </mxCell>
        <mxCell id="-Rssr8xIlX8RrwnYfVgQ-23" value="" style="endArrow=none;html=1;rounded=0;" parent="1" edge="1">
          <mxGeometry width="50" height="50" relative="1" as="geometry">
            <mxPoint x="720" y="80" as="sourcePoint" />
            <mxPoint x="740" y="80" as="targetPoint" />
          </mxGeometry>
        </mxCell>
        <mxCell id="-Rssr8xIlX8RrwnYfVgQ-24" value="" style="endArrow=none;html=1;rounded=0;" parent="1" edge="1">
          <mxGeometry width="50" height="50" relative="1" as="geometry">
            <mxPoint x="490" y="19.43" as="sourcePoint" />
            <mxPoint x="250" y="19.43" as="targetPoint" />
          </mxGeometry>
        </mxCell>
        <mxCell id="-Rssr8xIlX8RrwnYfVgQ-25" value="" style="endArrow=none;html=1;rounded=0;" parent="1" edge="1">
          <mxGeometry width="50" height="50" relative="1" as="geometry">
            <mxPoint x="249.70999999999998" y="19.43" as="sourcePoint" />
            <mxPoint x="249.70999999999998" y="-0.5700000000000003" as="targetPoint" />
          </mxGeometry>
        </mxCell>
        <mxCell id="-Rssr8xIlX8RrwnYfVgQ-26" value="" style="endArrow=none;html=1;rounded=0;" parent="1" edge="1">
          <mxGeometry width="50" height="50" relative="1" as="geometry">
            <mxPoint x="489.71" y="19.43" as="sourcePoint" />
            <mxPoint x="489.71" y="-0.5700000000000003" as="targetPoint" />
          </mxGeometry>
        </mxCell>
        <mxCell id="-Rssr8xIlX8RrwnYfVgQ-27" value="" style="endArrow=none;html=1;rounded=0;exitX=0.5;exitY=0;exitDx=0;exitDy=0;" parent="1" source="rz2hdJDVGDlyGoP4z-RC-11" edge="1">
          <mxGeometry width="50" height="50" relative="1" as="geometry">
            <mxPoint x="369.85999999999996" y="19.43" as="sourcePoint" />
            <mxPoint x="369.85999999999996" y="-0.5700000000000003" as="targetPoint" />
          </mxGeometry>
        </mxCell>
        <mxCell id="-Rssr8xIlX8RrwnYfVgQ-28" value="" style="endArrow=none;html=1;rounded=0;" parent="1" edge="1">
          <mxGeometry width="50" height="50" relative="1" as="geometry">
            <mxPoint x="490" y="280" as="sourcePoint" />
            <mxPoint x="850" y="280" as="targetPoint" />
          </mxGeometry>
        </mxCell>
        <mxCell id="-Rssr8xIlX8RrwnYfVgQ-29" value="" style="endArrow=none;html=1;rounded=0;" parent="1" edge="1">
          <mxGeometry width="50" height="50" relative="1" as="geometry">
            <mxPoint x="490" y="300" as="sourcePoint" />
            <mxPoint x="490" y="280" as="targetPoint" />
          </mxGeometry>
        </mxCell>
        <mxCell id="-Rssr8xIlX8RrwnYfVgQ-30" value="" style="endArrow=none;html=1;rounded=0;" parent="1" edge="1">
          <mxGeometry width="50" height="50" relative="1" as="geometry">
            <mxPoint x="849.8" y="300" as="sourcePoint" />
            <mxPoint x="849.8" y="280" as="targetPoint" />
          </mxGeometry>
        </mxCell>
        <mxCell id="-Rssr8xIlX8RrwnYfVgQ-31" value="" style="endArrow=none;html=1;rounded=0;" parent="1" edge="1">
          <mxGeometry width="50" height="50" relative="1" as="geometry">
            <mxPoint x="609.6" y="300" as="sourcePoint" />
            <mxPoint x="609.6" y="280" as="targetPoint" />
          </mxGeometry>
        </mxCell>
        <mxCell id="-Rssr8xIlX8RrwnYfVgQ-32" value="" style="endArrow=none;html=1;rounded=0;" parent="1" edge="1">
          <mxGeometry width="50" height="50" relative="1" as="geometry">
            <mxPoint x="729.8" y="300" as="sourcePoint" />
            <mxPoint x="729.8" y="280" as="targetPoint" />
          </mxGeometry>
        </mxCell>
        <mxCell id="-Rssr8xIlX8RrwnYfVgQ-33" value="" style="endArrow=none;html=1;rounded=0;" parent="1" edge="1">
          <mxGeometry width="50" height="50" relative="1" as="geometry">
            <mxPoint x="669.8" y="280" as="sourcePoint" />
            <mxPoint x="669.8" y="260" as="targetPoint" />
          </mxGeometry>
        </mxCell>
        <mxCell id="VsWsPcHv5tTH_bZflvKm-1" value="email" style="ellipse;whiteSpace=wrap;html=1;align=center;fillColor=#dae8fc;strokeColor=#6c8ebf;" vertex="1" parent="1">
          <mxGeometry x="-120" y="180" width="100" height="40" as="geometry" />
        </mxCell>
        <mxCell id="VsWsPcHv5tTH_bZflvKm-2" value="" style="endArrow=none;html=1;rounded=0;exitX=1;exitY=0.5;exitDx=0;exitDy=0;" edge="1" parent="1" source="rz2hdJDVGDlyGoP4z-RC-16">
          <mxGeometry width="50" height="50" relative="1" as="geometry">
            <mxPoint x="40" y="-50" as="sourcePoint" />
            <mxPoint y="-100" as="targetPoint" />
          </mxGeometry>
        </mxCell>
        <mxCell id="VsWsPcHv5tTH_bZflvKm-3" value="Empleado" style="whiteSpace=wrap;html=1;align=center;fillColor=#d5e8d4;strokeColor=#82b366;" vertex="1" parent="1">
          <mxGeometry x="320" y="440" width="100" height="40" as="geometry" />
        </mxCell>
        <mxCell id="VsWsPcHv5tTH_bZflvKm-4" value="idCliente" style="ellipse;whiteSpace=wrap;html=1;align=center;fontStyle=4;fillColor=#dae8fc;strokeColor=#6c8ebf;" vertex="1" parent="1">
          <mxGeometry x="150" y="230" width="100" height="40" as="geometry" />
        </mxCell>
        <mxCell id="VsWsPcHv5tTH_bZflvKm-5" value="apellido" style="ellipse;whiteSpace=wrap;html=1;align=center;fillColor=#dae8fc;strokeColor=#6c8ebf;" vertex="1" parent="1">
          <mxGeometry x="150" y="350" width="100" height="40" as="geometry" />
        </mxCell>
        <mxCell id="VsWsPcHv5tTH_bZflvKm-6" value="telefono" style="ellipse;whiteSpace=wrap;html=1;align=center;fillColor=#dae8fc;strokeColor=#6c8ebf;" vertex="1" parent="1">
          <mxGeometry x="150" y="470" width="100" height="40" as="geometry" />
        </mxCell>
        <mxCell id="VsWsPcHv5tTH_bZflvKm-7" value="direccion" style="ellipse;whiteSpace=wrap;html=1;align=center;fillColor=#dae8fc;strokeColor=#6c8ebf;" vertex="1" parent="1">
          <mxGeometry x="150" y="410" width="100" height="40" as="geometry" />
        </mxCell>
        <mxCell id="VsWsPcHv5tTH_bZflvKm-8" value="nombre" style="ellipse;whiteSpace=wrap;html=1;align=center;fillColor=#dae8fc;strokeColor=#6c8ebf;" vertex="1" parent="1">
          <mxGeometry x="150" y="290" width="100" height="40" as="geometry" />
        </mxCell>
        <mxCell id="VsWsPcHv5tTH_bZflvKm-9" value="" style="endArrow=none;html=1;rounded=0;" edge="1" parent="1">
          <mxGeometry width="50" height="50" relative="1" as="geometry">
            <mxPoint x="270" y="680" as="sourcePoint" />
            <mxPoint x="270" y="250" as="targetPoint" />
          </mxGeometry>
        </mxCell>
        <mxCell id="VsWsPcHv5tTH_bZflvKm-10" value="" style="endArrow=none;html=1;rounded=0;" edge="1" parent="1">
          <mxGeometry width="50" height="50" relative="1" as="geometry">
            <mxPoint x="249" y="309.85" as="sourcePoint" />
            <mxPoint x="269" y="309.85" as="targetPoint" />
          </mxGeometry>
        </mxCell>
        <mxCell id="VsWsPcHv5tTH_bZflvKm-11" value="" style="endArrow=none;html=1;rounded=0;" edge="1" parent="1">
          <mxGeometry width="50" height="50" relative="1" as="geometry">
            <mxPoint x="250" y="369.76" as="sourcePoint" />
            <mxPoint x="270" y="369.76" as="targetPoint" />
          </mxGeometry>
        </mxCell>
        <mxCell id="VsWsPcHv5tTH_bZflvKm-12" value="" style="endArrow=none;html=1;rounded=0;" edge="1" parent="1">
          <mxGeometry width="50" height="50" relative="1" as="geometry">
            <mxPoint x="250" y="549.76" as="sourcePoint" />
            <mxPoint x="270" y="550" as="targetPoint" />
          </mxGeometry>
        </mxCell>
        <mxCell id="VsWsPcHv5tTH_bZflvKm-13" value="" style="endArrow=none;html=1;rounded=0;" edge="1" parent="1">
          <mxGeometry width="50" height="50" relative="1" as="geometry">
            <mxPoint x="250" y="429.76" as="sourcePoint" />
            <mxPoint x="270" y="429.76" as="targetPoint" />
          </mxGeometry>
        </mxCell>
        <mxCell id="VsWsPcHv5tTH_bZflvKm-14" value="" style="endArrow=none;html=1;rounded=0;" edge="1" parent="1">
          <mxGeometry width="50" height="50" relative="1" as="geometry">
            <mxPoint x="250" y="489.76" as="sourcePoint" />
            <mxPoint x="270" y="489.76" as="targetPoint" />
          </mxGeometry>
        </mxCell>
        <mxCell id="VsWsPcHv5tTH_bZflvKm-15" value="email" style="ellipse;whiteSpace=wrap;html=1;align=center;fillColor=#dae8fc;strokeColor=#6c8ebf;" vertex="1" parent="1">
          <mxGeometry x="150" y="530" width="100" height="40" as="geometry" />
        </mxCell>
        <mxCell id="VsWsPcHv5tTH_bZflvKm-16" value="" style="endArrow=none;html=1;rounded=0;exitX=1;exitY=0.5;exitDx=0;exitDy=0;" edge="1" parent="1" source="VsWsPcHv5tTH_bZflvKm-4">
          <mxGeometry width="50" height="50" relative="1" as="geometry">
            <mxPoint x="310" y="300" as="sourcePoint" />
            <mxPoint x="270" y="250" as="targetPoint" />
          </mxGeometry>
        </mxCell>
        <mxCell id="VsWsPcHv5tTH_bZflvKm-17" value="cargo" style="ellipse;whiteSpace=wrap;html=1;align=center;fillColor=#dae8fc;strokeColor=#6c8ebf;" vertex="1" parent="1">
          <mxGeometry x="150" y="590" width="100" height="40" as="geometry" />
        </mxCell>
        <mxCell id="VsWsPcHv5tTH_bZflvKm-18" value="salario" style="ellipse;whiteSpace=wrap;html=1;align=center;fillColor=#dae8fc;strokeColor=#6c8ebf;" vertex="1" parent="1">
          <mxGeometry x="150" y="660" width="100" height="40" as="geometry" />
        </mxCell>
        <mxCell id="VsWsPcHv5tTH_bZflvKm-20" value="" style="endArrow=none;html=1;rounded=0;exitX=1;exitY=0.5;exitDx=0;exitDy=0;" edge="1" parent="1" source="VsWsPcHv5tTH_bZflvKm-17">
          <mxGeometry width="50" height="50" relative="1" as="geometry">
            <mxPoint x="70" y="650" as="sourcePoint" />
            <mxPoint x="270" y="610" as="targetPoint" />
          </mxGeometry>
        </mxCell>
        <mxCell id="VsWsPcHv5tTH_bZflvKm-21" value="" style="endArrow=none;html=1;rounded=0;exitX=1;exitY=0.5;exitDx=0;exitDy=0;" edge="1" parent="1" source="VsWsPcHv5tTH_bZflvKm-18">
          <mxGeometry width="50" height="50" relative="1" as="geometry">
            <mxPoint x="70" y="650" as="sourcePoint" />
            <mxPoint x="270" y="680" as="targetPoint" />
          </mxGeometry>
        </mxCell>
        <mxCell id="VsWsPcHv5tTH_bZflvKm-22" value="" style="endArrow=none;html=1;rounded=0;entryX=0;entryY=0.5;entryDx=0;entryDy=0;" edge="1" parent="1" target="VsWsPcHv5tTH_bZflvKm-3">
          <mxGeometry width="50" height="50" relative="1" as="geometry">
            <mxPoint x="270" y="460" as="sourcePoint" />
            <mxPoint x="120" y="430" as="targetPoint" />
          </mxGeometry>
        </mxCell>
        <mxCell id="VsWsPcHv5tTH_bZflvKm-23" value="EMITE" style="shape=rhombus;perimeter=rhombusPerimeter;whiteSpace=wrap;html=1;align=center;fillColor=#ffe6cc;strokeColor=#d79b00;" vertex="1" parent="1">
          <mxGeometry x="310" y="220" width="120" height="60" as="geometry" />
        </mxCell>
        <mxCell id="VsWsPcHv5tTH_bZflvKm-24" value="" style="endArrow=none;html=1;rounded=0;entryX=0.5;entryY=1;entryDx=0;entryDy=0;exitX=0.5;exitY=0;exitDx=0;exitDy=0;" edge="1" parent="1" source="VsWsPcHv5tTH_bZflvKm-23" target="rz2hdJDVGDlyGoP4z-RC-11">
          <mxGeometry width="50" height="50" relative="1" as="geometry">
            <mxPoint x="70" y="310" as="sourcePoint" />
            <mxPoint x="120" y="260" as="targetPoint" />
          </mxGeometry>
        </mxCell>
        <mxCell id="VsWsPcHv5tTH_bZflvKm-25" value="" style="endArrow=none;html=1;rounded=0;entryX=0.5;entryY=1;entryDx=0;entryDy=0;exitX=0.5;exitY=0;exitDx=0;exitDy=0;" edge="1" parent="1" source="VsWsPcHv5tTH_bZflvKm-3" target="VsWsPcHv5tTH_bZflvKm-23">
          <mxGeometry width="50" height="50" relative="1" as="geometry">
            <mxPoint x="70" y="310" as="sourcePoint" />
            <mxPoint x="120" y="260" as="targetPoint" />
          </mxGeometry>
        </mxCell>
        <mxCell id="VsWsPcHv5tTH_bZflvKm-26" value="(1,1)" style="text;html=1;strokeColor=none;fillColor=none;align=center;verticalAlign=middle;whiteSpace=wrap;rounded=0;" vertex="1" parent="1">
          <mxGeometry x="360" y="410" width="60" height="30" as="geometry" />
        </mxCell>
        <mxCell id="VsWsPcHv5tTH_bZflvKm-27" value="1:M" style="text;html=1;strokeColor=none;fillColor=none;align=center;verticalAlign=middle;whiteSpace=wrap;rounded=0;" vertex="1" parent="1">
          <mxGeometry x="420" y="235" width="60" height="30" as="geometry" />
        </mxCell>
        <mxCell id="VsWsPcHv5tTH_bZflvKm-28" value="(1,M)" style="text;html=1;strokeColor=none;fillColor=none;align=center;verticalAlign=middle;whiteSpace=wrap;rounded=0;" vertex="1" parent="1">
          <mxGeometry x="360" y="100" width="60" height="30" as="geometry" />
        </mxCell>
        <mxCell id="VsWsPcHv5tTH_bZflvKm-29" value="Sucursal" style="whiteSpace=wrap;html=1;align=center;fillColor=#d5e8d4;strokeColor=#82b366;" vertex="1" parent="1">
          <mxGeometry x="320" y="910" width="100" height="40" as="geometry" />
        </mxCell>
        <mxCell id="VsWsPcHv5tTH_bZflvKm-30" value="idSucursal" style="ellipse;whiteSpace=wrap;html=1;align=center;fontStyle=4;fillColor=#dae8fc;strokeColor=#6c8ebf;" vertex="1" parent="1">
          <mxGeometry x="200" y="1000" width="100" height="40" as="geometry" />
        </mxCell>
        <mxCell id="VsWsPcHv5tTH_bZflvKm-32" value="direccion" style="ellipse;whiteSpace=wrap;html=1;align=center;fillColor=#dae8fc;strokeColor=#6c8ebf;" vertex="1" parent="1">
          <mxGeometry x="440" y="1000" width="100" height="40" as="geometry" />
        </mxCell>
        <mxCell id="VsWsPcHv5tTH_bZflvKm-33" value="nombre" style="ellipse;whiteSpace=wrap;html=1;align=center;fillColor=#dae8fc;strokeColor=#6c8ebf;" vertex="1" parent="1">
          <mxGeometry x="320" y="1000" width="100" height="40" as="geometry" />
        </mxCell>
        <mxCell id="VsWsPcHv5tTH_bZflvKm-34" value="" style="endArrow=none;html=1;rounded=0;" edge="1" parent="1">
          <mxGeometry width="50" height="50" relative="1" as="geometry">
            <mxPoint x="250" y="980" as="sourcePoint" />
            <mxPoint x="490" y="980" as="targetPoint" />
          </mxGeometry>
        </mxCell>
        <mxCell id="VsWsPcHv5tTH_bZflvKm-35" value="" style="endArrow=none;html=1;rounded=0;" edge="1" parent="1">
          <mxGeometry width="50" height="50" relative="1" as="geometry">
            <mxPoint x="250" y="1000" as="sourcePoint" />
            <mxPoint x="250" y="980" as="targetPoint" />
          </mxGeometry>
        </mxCell>
        <mxCell id="VsWsPcHv5tTH_bZflvKm-37" value="" style="endArrow=none;html=1;rounded=0;" edge="1" parent="1">
          <mxGeometry width="50" height="50" relative="1" as="geometry">
            <mxPoint x="369.6" y="1000" as="sourcePoint" />
            <mxPoint x="369.6" y="980" as="targetPoint" />
          </mxGeometry>
        </mxCell>
        <mxCell id="VsWsPcHv5tTH_bZflvKm-38" value="" style="endArrow=none;html=1;rounded=0;" edge="1" parent="1">
          <mxGeometry width="50" height="50" relative="1" as="geometry">
            <mxPoint x="489.79999999999995" y="1000" as="sourcePoint" />
            <mxPoint x="489.79999999999995" y="980" as="targetPoint" />
          </mxGeometry>
        </mxCell>
        <mxCell id="VsWsPcHv5tTH_bZflvKm-39" value="" style="endArrow=none;html=1;rounded=0;entryX=0.5;entryY=1;entryDx=0;entryDy=0;" edge="1" parent="1" target="VsWsPcHv5tTH_bZflvKm-29">
          <mxGeometry width="50" height="50" relative="1" as="geometry">
            <mxPoint x="370" y="980" as="sourcePoint" />
            <mxPoint x="410" y="1000" as="targetPoint" />
          </mxGeometry>
        </mxCell>
        <mxCell id="VsWsPcHv5tTH_bZflvKm-40" value="PROVEE" style="shape=rhombus;perimeter=rhombusPerimeter;whiteSpace=wrap;html=1;align=center;fillColor=#ffe6cc;strokeColor=#d79b00;" vertex="1" parent="1">
          <mxGeometry x="310" y="670" width="120" height="60" as="geometry" />
        </mxCell>
        <mxCell id="VsWsPcHv5tTH_bZflvKm-41" value="" style="endArrow=none;html=1;rounded=0;entryX=0.5;entryY=1;entryDx=0;entryDy=0;exitX=0.5;exitY=0;exitDx=0;exitDy=0;" edge="1" parent="1" source="VsWsPcHv5tTH_bZflvKm-40" target="VsWsPcHv5tTH_bZflvKm-3">
          <mxGeometry width="50" height="50" relative="1" as="geometry">
            <mxPoint x="360" y="640" as="sourcePoint" />
            <mxPoint x="410" y="590" as="targetPoint" />
          </mxGeometry>
        </mxCell>
        <mxCell id="VsWsPcHv5tTH_bZflvKm-42" value="" style="endArrow=none;html=1;rounded=0;entryX=0.5;entryY=0;entryDx=0;entryDy=0;exitX=0.5;exitY=1;exitDx=0;exitDy=0;" edge="1" parent="1" source="VsWsPcHv5tTH_bZflvKm-40" target="VsWsPcHv5tTH_bZflvKm-29">
          <mxGeometry width="50" height="50" relative="1" as="geometry">
            <mxPoint x="360" y="640" as="sourcePoint" />
            <mxPoint x="410" y="590" as="targetPoint" />
          </mxGeometry>
        </mxCell>
        <mxCell id="VsWsPcHv5tTH_bZflvKm-43" value="(1,1)" style="text;html=1;strokeColor=none;fillColor=none;align=center;verticalAlign=middle;whiteSpace=wrap;rounded=0;" vertex="1" parent="1">
          <mxGeometry x="360" y="880" width="60" height="30" as="geometry" />
        </mxCell>
        <mxCell id="VsWsPcHv5tTH_bZflvKm-44" value="1:M" style="text;html=1;strokeColor=none;fillColor=none;align=center;verticalAlign=middle;whiteSpace=wrap;rounded=0;" vertex="1" parent="1">
          <mxGeometry x="430" y="685" width="60" height="30" as="geometry" />
        </mxCell>
        <mxCell id="VsWsPcHv5tTH_bZflvKm-45" value="(1,M)" style="text;html=1;strokeColor=none;fillColor=none;align=center;verticalAlign=middle;whiteSpace=wrap;rounded=0;" vertex="1" parent="1">
          <mxGeometry x="360" y="480" width="60" height="30" as="geometry" />
        </mxCell>
      </root>
    </mxGraphModel>
  </diagram>
</mxfile>
